<svg class="svg-icon" style="width: 1em; height: 1em;vertical-align: middle;fill: currentColor;overflow: hidden;" viewBox="0 0 1024 1024" version="1.1" xmlns="http://www.w3.org/2000/svg"><path d="M240 224v576h512V224H240z m0-64h512c35.3 0 64 28.7 64 64v576c0 35.3-28.7 64-64 64H240c-35.3 0-64-28.7-64-64V224c0-35.3 28.7-64 64-64z m80 192h240c8.8 0 16 7.2 16 16s-7.2 16-16 16H320c-8.8 0-16-7.2-16-16s7.2-16 16-16z m0 96h112c8.8 0 16 7.2 16 16s-7.2 16-16 16H320c-8.8 0-16-7.2-16-16s7.2-16 16-16z" fill="#333333" /><path d="M448 560c17.7 0 32 14.3 32 32v112c0 17.7-14.3 32-32 32s-32-14.3-32-32V592c0-17.7 14.3-32 32-32z m-96 80c17.7 0 32 14.3 32 32v32c0 17.7-14.3 32-32 32s-32-14.3-32-32v-32c0-17.7 14.3-32 32-32z m192-96c17.7 0 32 14.3 32 32v128c0 17.7-14.3 32-32 32s-32-14.3-32-32V576c0-17.7 14.3-32 32-32z m96-96c17.7 0 32 14.3 32 32v224c0 17.7-14.3 32-32 32s-32-14.3-32-32V480c0-17.7 14.3-32 32-32z" fill="#0076FF" /></svg>